<svg id="Layer_1" data-name="Layer 1" xmlns="http://www.w3.org/2000/svg" viewBox="0 0 56 64"><defs><style>.cls-1{fill-rule:evenodd;}</style></defs><title>exit</title><path class="cls-1" d="M556,6372H512a4,4,0,0,1-4-4v-8h-2a2,2,0,0,1,0-4h2v-8h-2a2,2,0,1,1,0-4h2v-8h-2a2,2,0,1,1,0-4h2v-8h-2a2,2,0,0,1,0-4h2v-8a4,4,0,0,1,4-4h44a4,4,0,0,1,4,4v56A4,4,0,0,1,556,6372Zm-12-60H514a2,2,0,0,0-2,2v6h2a2,2,0,0,1,0,4h-2v8h2a2,2,0,1,1,0,4h-2v8h2a2,2,0,1,1,0,4h-2v8h2a2,2,0,0,1,0,4h-2v6a2,2,0,0,0,2,2h30Zm12,2a2,2,0,0,0-2-2h-6v56h6a2,2,0,0,0,2-2Z" transform="translate(-504 -6307.99)"/></svg>