<?xml version="1.0" standalone="no"?>
<!DOCTYPE svg PUBLIC "-//W3C//DTD SVG 20010904//EN"
 "http://www.w3.org/TR/2001/REC-SVG-20010904/DTD/svg10.dtd">
<svg version="1.0" xmlns="http://www.w3.org/2000/svg"
 width="150.000000pt" height="150.000000pt" viewBox="0 0 150.000000 150.000000"
 preserveAspectRatio="xMidYMid meet">
<metadata>
Created by potrace 1.15, written by Peter Selinger 2001-2017
</metadata>
<g transform="translate(0.000000,150.000000) scale(0.100000,-0.100000)"
fill="#000000" stroke="none">
<path d="M72 1480 c-18 -11 -41 -34 -52 -52 -19 -32 -20 -52 -20 -678 0 -626
1 -646 20 -678 11 -18 34 -41 52 -52 32 -19 52 -20 678 -20 626 0 646 1 678
20 18 11 41 34 52 52 19 32 20 52 20 678 0 626 -1 646 -20 678 -11 18 -34 41
-52 52 -32 19 -52 20 -678 20 -626 0 -646 -1 -678 -20z m1318 -90 c20 -20 20
-33 20 -640 0 -607 0 -620 -20 -640 -20 -20 -33 -20 -640 -20 -607 0 -620 0
-640 20 -20 20 -20 33 -20 640 0 607 0 620 20 640 20 20 33 20 640 20 607 0
620 0 640 -20z"/>
<path d="M660 1175 l0 -45 -184 0 c-102 0 -196 -4 -209 -9 -32 -13 -41 -39
-22 -67 15 -24 16 -24 215 -24 l200 0 0 -45 0 -45 45 0 45 0 0 45 0 45 245 0
245 0 15 24 c19 28 10 54 -22 67 -13 5 -128 9 -254 9 l-229 0 0 45 0 45 -45 0
-45 0 0 -45z"/>
<path d="M1030 795 l0 -45 -385 0 -385 0 -15 -24 c-13 -19 -14 -29 -5 -45 11
-21 17 -21 400 -21 l390 0 0 -51 0 -50 48 3 47 3 3 48 3 47 59 0 c50 0 61 3
70 21 9 16 8 26 -5 45 -13 21 -23 24 -70 24 l-55 0 0 45 0 45 -50 0 -50 0 0
-45z"/>
<path d="M377 463 c-4 -3 -7 -24 -7 -45 0 -38 0 -38 -39 -38 -80 0 -115 -32
-86 -76 13 -20 24 -24 70 -24 l55 0 0 -45 0 -45 50 0 50 0 0 45 0 45 385 0
385 0 15 24 c19 28 10 54 -22 67 -13 5 -191 9 -394 9 l-369 0 0 45 0 45 -43 0
c-24 0 -47 -3 -50 -7z"/>
</g>
</svg>
