<?xml version="1.0" standalone="no"?>
<!DOCTYPE svg PUBLIC "-//W3C//DTD SVG 20010904//EN"
 "http://www.w3.org/TR/2001/REC-SVG-20010904/DTD/svg10.dtd">
<svg version="1.0" xmlns="http://www.w3.org/2000/svg"
 width="150.000000pt" height="159.000000pt" viewBox="0 0 150.000000 159.000000"
 preserveAspectRatio="xMidYMid meet">
<metadata>
Created by potrace 1.14, written by Peter Selinger 2001-2017
</metadata>
<g transform="translate(0.000000,159.000000) scale(0.100000,-0.100000)"
fill="#4680ff" stroke="none">
<path d="M400 1540 l0 -50 -160 0 c-176 0 -206 -7 -228 -55 -17 -37 -17 -1343
0 -1380 25 -56 10 -55 737 -55 498 0 677 3 696 12 56 25 55 8 55 753 0 454 -4
693 -10 706 -10 18 -23 19 -200 19 l-190 0 0 50 0 50 -50 0 -50 0 0 -50 0 -50
-250 0 -250 0 0 50 0 50 -50 0 -50 0 0 -50z m0 -200 l0 -50 50 0 50 0 0 50 0
50 250 0 250 0 0 -50 0 -50 50 0 50 0 0 50 0 50 134 0 c167 0 166 1 166 -116
l0 -84 -650 0 -650 0 0 84 c0 117 -1 116 166 116 l134 0 0 -50z m1000 -729 c0
-423 -2 -481 -16 -495 -14 -14 -85 -16 -634 -16 -549 0 -620 2 -634 16 -14 14
-16 72 -16 495 l0 479 650 0 650 0 0 -479z"/>
<path d="M200 745 l0 -145 150 0 150 0 0 145 0 145 -150 0 -150 0 0 -145z"/>
<path d="M600 745 l0 -145 150 0 150 0 0 145 0 145 -150 0 -150 0 0 -145z"/>
<path d="M1000 745 l0 -145 150 0 150 0 0 145 0 145 -150 0 -150 0 0 -145z"/>
<path d="M200 350 l0 -150 150 0 150 0 0 150 0 150 -150 0 -150 0 0 -150z"/>
<path d="M600 350 l0 -150 150 0 150 0 0 150 0 150 -150 0 -150 0 0 -150z"/>
<path d="M1000 350 l0 -150 150 0 150 0 0 150 0 150 -150 0 -150 0 0 -150z"/>
</g>
</svg>
