<svg id="Layer_1" data-name="Layer 1" xmlns="http://www.w3.org/2000/svg" viewBox="0 0 54 36"><defs><style>.cls-1{fill-rule:evenodd;}</style></defs><title>menu-sandwich</title><path class="cls-1" d="M4811.3,7184h-48.6c-1.49,0-2.7-.9-2.7-2s1.21-2,2.7-2h48.6c1.49,0,2.7.9,2.7,2S4812.79,7184,4811.3,7184Zm0-16h-48.6c-1.49,0-2.7-.9-2.7-2s1.21-2,2.7-2h48.6c1.49,0,2.7.9,2.7,2S4812.79,7168,4811.3,7168Zm-48.6,28h48.6c1.49,0,2.7.89,2.7,2s-1.21,2-2.7,2h-48.6c-1.49,0-2.7-.9-2.7-2S4761.21,7196,4762.7,7196Z" transform="translate(-4760 -7163.99)"/></svg>