<svg id="Layer_1" data-name="Layer 1" xmlns="http://www.w3.org/2000/svg" viewBox="0 0 63.88 52"><defs><style>.cls-1{fill-rule:evenodd;}</style></defs><title>messages-icon</title><path class="cls-1" d="M4151.87,4678a2,2,0,0,1-2,2H4090a2,2,0,0,1-2-2v-48s0,0,0,0,0,0,0-.07a2,2,0,0,1,.5-1.21s0-.09.05-.13.11,0,.16-.07a2,2,0,0,1,1.08-.45,1.72,1.72,0,0,1,.22,0h59.83a1.69,1.69,0,0,1,.21,0,2,2,0,0,1,1.08.45s.12,0,.16.07,0,.09.05.13a2,2,0,0,1,.5,1.21s0,0,0,.07,0,0,0,0Zm-59.88-4a2,2,0,0,0,2,2h51.9a2,2,0,0,0,2-2v-39.93l-26.47,21.23s0,.08,0,.1a2.11,2.11,0,0,1-2.86,0s0-.07,0-.1L4092,4634.06Zm27.95-22.52,24.29-19.48h-48.57Z" transform="translate(-4088 -4627.99)"/></svg>