<svg id="Layer_1" data-name="Layer 1" xmlns="http://www.w3.org/2000/svg" viewBox="0 0 59.88 59.87"><defs><style>.cls-1{fill-rule:evenodd;}</style></defs><title>move-icon</title><path class="cls-1" d="M5031.87,6718s0,.06,0,.1a1.85,1.85,0,0,1-.43,1c-.06.08,0,.19-.11.26s-.12,0-.18.07l0,0-7.86,7.86a1.95,1.95,0,0,1-2.76-2.75l4.66-4.66h-21.19v21.19l4.66-4.66a1.95,1.95,0,0,1,2.76,2.75l-7.86,7.86,0,0c0,.05,0,.13-.07.18s-.18.05-.26.11a1.85,1.85,0,0,1-1,.43l-.1,0h-.13a2,2,0,0,1-1.23-.51s-.07,0-.1,0,0-.07,0-.1,0,0,0-.07l-7.92-7.91a1.95,1.95,0,0,1,2.76-2.75l4.66,4.66v-21.19h-21.19l4.66,4.66a1.95,1.95,0,1,1-2.76,2.75l-7.86-7.86,0,0c-.05,0-.13,0-.18-.07s-.05-.18-.11-.26a1.85,1.85,0,0,1-.43-1s0-.06,0-.1,0,0,0,0,0,0,0,0,0,0,0-.07a2,2,0,0,1,.51-1.23s0-.07,0-.09.07,0,.09,0l.07,0,7.91-7.91a1.95,1.95,0,0,1,2.76,2.76l-4.66,4.66h21.19v-21.19l-4.66,4.66a1.95,1.95,0,0,1-2.76-2.76l7.92-7.92s0,0,0-.06,0-.07,0-.1.07,0,.1,0a2,2,0,0,1,1.22-.51h.13s.07,0,.11,0a1.86,1.86,0,0,1,1,.42c.08.06.19,0,.27.11s0,.12.07.18l0,0,7.86,7.86a1.95,1.95,0,0,1-2.76,2.76l-4.66-4.66v21.19h21.19l-4.66-4.66a1.95,1.95,0,0,1,2.76-2.76l7.91,7.91.07,0s.07,0,.1,0,0,.07,0,.1a2,2,0,0,1,.51,1.23s0,0,0,.07v0S5031.87,6718,5031.87,6718Z" transform="translate(-4972 -6688)"/></svg>