<svg id="Layer_1" data-name="Layer 1" xmlns="http://www.w3.org/2000/svg" viewBox="0 0 64 64"><defs><style>.cls-1{fill-rule:evenodd;}</style></defs><title>notifications-icon</title><path class="cls-1" d="M3456,4376c-1.22,0-2.43-.07-3.61-.19L3436,4384v-14.16c-7.31-5.13-12-13-12-21.84,0-15.47,14.33-28,32-28s32,12.54,32,28S3473.67,4376,3456,4376Zm0-52c-15.46,0-28,10.75-28,24,0,8.13,4.78,15.23,12,19.56v.43h0v10l12-6h4c15.46,0,28-10.75,28-24S3471.46,4324,3456,4324Zm16,28a4,4,0,1,1,4-4A4,4,0,0,1,3472,4352Zm-16,0a4,4,0,1,1,4-4A4,4,0,0,1,3456,4352Zm-16,0a4,4,0,1,1,4-4A4,4,0,0,1,3440,4352Z" transform="translate(-3424 -4319.99)"/></svg>