<?xml version="1.0" standalone="no"?>
<!DOCTYPE svg PUBLIC "-//W3C//DTD SVG 20010904//EN"
 "http://www.w3.org/TR/2001/REC-SVG-20010904/DTD/svg10.dtd">
<svg version="1.0" xmlns="http://www.w3.org/2000/svg"
 width="150.000000pt" height="150.000000pt" viewBox="0 0 150.000000 150.000000"
 preserveAspectRatio="xMidYMid meet">
<metadata>
Created by potrace 1.15, written by Peter Selinger 2001-2017
</metadata>
<g transform="translate(0.000000,150.000000) scale(0.100000,-0.100000)"
fill="#4680ff" stroke="none">
<path d="M702 1487 c-55 -31 -57 -39 -60 -344 l-3 -282 -282 -3 c-250 -3 -285
-5 -308 -21 -63 -43 -63 -131 0 -174 23 -16 58 -18 308 -21 l282 -3 3 -282 c3
-250 5 -285 21 -308 43 -63 131 -63 174 0 16 23 18 58 21 308 l3 282 282 3
c307 3 319 5 345 64 23 49 8 101 -37 131 -23 16 -58 18 -308 21 l-282 3 -3
282 c-3 250 -5 285 -21 308 -31 46 -89 61 -135 36z"/>
</g>
</svg>
