<?xml version="1.0" standalone="no"?>
<!DOCTYPE svg PUBLIC "-//W3C//DTD SVG 20010904//EN"
 "http://www.w3.org/TR/2001/REC-SVG-20010904/DTD/svg10.dtd">
<svg version="1.0" xmlns="http://www.w3.org/2000/svg"
 width="150.000000pt" height="150.000000pt" viewBox="0 0 150.000000 150.000000"
 preserveAspectRatio="xMidYMid meet">
<metadata>
Created by potrace 1.15, written by Peter Selinger 2001-2017
</metadata>
<g transform="translate(0.000000,150.000000) scale(0.100000,-0.100000)"
fill="#000000" stroke="none">
<path d="M313 1476 l-28 -24 -3 -396 -3 -396 -93 0 c-178 0 -186 -11 -186
-245 l0 -167 29 -29 c29 -29 31 -29 140 -29 l111 0 0 -79 c0 -59 4 -84 16 -95
14 -14 69 -16 454 -16 385 0 440 2 454 16 12 11 16 36 16 95 l0 79 111 0 c109
0 111 0 140 29 l29 29 0 167 c0 234 -8 245 -186 245 l-93 0 -3 396 -3 396 -28
24 -28 24 -409 0 -409 0 -28 -24z m788 -76 c18 -10 19 -25 19 -363 0 -261 -3
-356 -12 -365 -17 -17 -699 -17 -716 0 -9 9 -12 104 -12 365 0 325 1 353 18
362 24 14 677 15 703 1z m289 -850 c23 -14 28 -212 6 -245 -15 -23 -22 -25
-96 -25 l-80 0 0 79 c0 59 -4 84 -16 95 -14 14 -69 16 -454 16 -385 0 -440 -2
-454 -16 -12 -11 -16 -36 -16 -95 l0 -79 -80 0 c-74 0 -81 2 -96 25 -22 33
-17 231 6 245 20 13 1260 13 1280 0z m-270 -320 l0 -140 -370 0 -370 0 0 140
0 140 370 0 370 0 0 -140z"/>
</g>
</svg>
